<?xml version="1.0" ?><svg id="Layer_1" style="enable-background:new 0 0 120 120;" version="1.1" viewBox="0 0 120 120" xml:space="preserve" xmlns="http://www.w3.org/2000/svg" xmlns:xlink="http://www.w3.org/1999/xlink"><style type="text/css">
	.st0{fill:#FFFCF1;}
	.st1{fill:#FF7396;}
	.st2{fill:#FFCA3B;}
	.st3{fill:#C499BA;}
</style><g><path class="st0" d="M33.4,58.1h64.1V37.8H33.4c-5.6,0-10.1,4.5-10.1,10.1v0C23.3,53.5,27.8,58.1,33.4,58.1z"/><path class="st1" d="M33,61c-7.2,0-13-5.8-13-13c0-7.2,5.8-13,13-13h64.2c1.5,0,2.8,1.3,2.8,2.8s-1.3,2.8-2.8,2.8H33   c-4.1,0-7.4,3.3-7.4,7.4c0,4.1,3.3,7.4,7.4,7.4h64.2c1.5,0,2.8,1.3,2.8,2.8S98.7,61,97.2,61H33z"/><polygon class="st2" points="45.4,52 40.5,48.7 35.7,52 35.7,40.6 45.4,40.6  "/><path class="st0" d="M33.4,84.1h64.1V63.8H33.4c-5.6,0-10.1,4.5-10.1,10.1v0C23.3,79.5,27.8,84.1,33.4,84.1z"/><path class="st3" d="M33,87c-7.2,0-13-5.8-13-13c0-7.2,5.8-13,13-13h64.2c1.5,0,2.8,1.3,2.8,2.8c0,1.5-1.3,2.8-2.8,2.8H33   c-4.1,0-7.4,3.3-7.4,7.4c0,4.1,3.3,7.4,7.4,7.4h64.2c1.5,0,2.8,1.3,2.8,2.8c0,1.5-1.3,2.8-2.8,2.8H33z"/><polygon class="st2" points="91.4,77.9 86.6,74.6 81.8,77.9 81.8,66.6 91.4,66.6  "/></g></svg>