<?xml version="1.0" standalone="no"?>
<!DOCTYPE svg PUBLIC "-//W3C//DTD SVG 20010904//EN"
 "http://www.w3.org/TR/2001/REC-SVG-20010904/DTD/svg10.dtd">
<svg version="1.0" xmlns="http://www.w3.org/2000/svg"
 width="512.000000pt" height="512.000000pt" viewBox="0 0 512.000000 512.000000"
 preserveAspectRatio="xMidYMid meet">

<g transform="translate(0.000000,512.000000) scale(0.100000,-0.100000)"
fill="#000000" stroke="none">
<path d="M2455 4801 c-121 -32 -208 -134 -221 -259 l-7 -59 -91 -6 c-111 -8
-165 -25 -233 -77 l-52 -39 -353 -3 c-325 -3 -356 -5 -392 -22 -50 -25 -97
-72 -122 -122 -19 -38 -19 -79 -19 -1854 0 -1775 0 -1816 19 -1854 11 -22 35
-55 54 -74 72 -72 -16 -66 1227 -72 l1120 -5 60 -32 c113 -59 195 -78 335 -78
103 0 138 4 200 24 253 78 433 258 511 511 20 62 24 96 23 200 0 138 -15 202
-48 208 -32 6 -46 -23 -33 -66 17 -59 13 -237 -7 -312 -50 -184 -182 -344
-348 -424 -51 -24 -118 -50 -148 -57 -77 -19 -241 -16 -319 5 -230 62 -414
246 -477 477 -24 86 -24 252 0 339 62 227 250 415 476 476 79 21 242 24 320 5
30 -7 97 -33 149 -58 71 -35 98 -44 110 -36 31 20 18 47 -39 81 -356 212 -829
75 -1024 -297 -61 -118 -81 -199 -81 -341 0 -103 4 -138 24 -200 26 -83 59
-154 103 -217 l29 -43 -1019 0 -1019 0 -21 23 -22 23 0 1795 0 1796 23 21 c23
22 29 22 327 22 l303 0 -6 -80 -6 -80 758 0 759 0 -5 80 -6 80 305 0 305 0 21
-23 22 -23 2 -1092 3 -1091 22 -22 c29 -29 77 -29 106 0 l22 22 0 1097 c0 878
-3 1104 -13 1134 -16 46 -75 107 -127 133 -37 19 -66 20 -393 23 l-353 3 -52
39 c-68 52 -122 69 -233 77 l-91 6 -6 52 c-11 112 -75 203 -170 245 -54 24
-136 33 -182 21z m123 -161 c34 -15 47 -29 63 -66 13 -27 18 -55 15 -70 -6
-24 -7 -24 -136 -24 -129 0 -130 0 -136 24 -3 15 2 43 15 70 16 37 29 51 63
66 24 11 50 20 58 20 8 0 34 -9 58 -20z"/>
<path d="M4350 1473 c-8 -3 -144 -134 -302 -291 l-287 -286 -109 107 c-69 67
-117 107 -130 107 -35 0 -75 -42 -75 -79 0 -29 19 -52 156 -189 l157 -157 345
345 c241 241 345 352 345 367 0 42 -62 89 -100 76z"/>
</g>
</svg>
